<svg width="134" height="16" viewBox="0 0 134 16" fill="none" xmlns="http://www.w3.org/2000/svg">
<g clip-path="url(#clip0_1204_25617)">
<path d="M21.9697 12.2397H16.6656L15.2865 15.2466H13.271L19.4018 2.08154L25.3131 15.2466H23.2683L21.9697 12.2397ZM21.2088 10.4839L19.3725 6.27359L17.4484 10.4839H21.2125H21.2088Z" fill="#A6ADC0"/>
<path d="M33.8688 4.70419L32.3508 5.60405C32.0691 5.11388 31.7984 4.79198 31.5387 4.642C31.2717 4.47008 30.9278 4.38594 30.5035 4.38594C29.9841 4.38594 29.5524 4.53226 29.2122 4.82856C28.872 5.11754 28.7001 5.47968 28.7001 5.91864C28.7001 6.5222 29.15 7.00871 30.0462 7.37817L31.2826 7.88297C32.2886 8.28901 33.0238 8.78649 33.4884 9.37177C33.953 9.95704 34.1871 10.674 34.1871 11.5263C34.1871 12.6639 33.8066 13.6077 33.0494 14.3503C32.2849 15.1002 31.3339 15.4733 30.1999 15.4733C29.1244 15.4733 28.2355 15.155 27.5369 14.5185C26.8455 13.8821 26.4175 12.9859 26.2456 11.8299L28.1404 11.4129C28.2246 12.1409 28.3746 12.642 28.5904 12.92C28.9745 13.4541 29.5378 13.7211 30.273 13.7211C30.8547 13.7211 31.3412 13.5272 31.7253 13.1358C32.1093 12.7444 32.3032 12.2506 32.3032 11.6507C32.3032 11.4093 32.2703 11.1898 32.2045 10.9886C32.1386 10.7874 32.0325 10.6045 31.8935 10.4362C31.7509 10.268 31.568 10.1107 31.3448 9.96436C31.1217 9.81804 30.851 9.67538 30.5437 9.54369L29.3476 9.04621C27.6503 8.32924 26.8053 7.28306 26.8053 5.90035C26.8053 4.97122 27.1601 4.19207 27.8734 3.56656C28.5831 2.93738 29.4683 2.61914 30.5291 2.61914C31.9557 2.61914 33.0714 3.31416 33.8725 4.70419H33.8688Z" fill="#A6ADC0"/>
<path d="M38.3136 2.86084V15.2468H36.4443V2.86084H38.3136Z" fill="#A6ADC0"/>
<path d="M48.2924 4.70419L46.778 5.60405C46.4927 5.11388 46.2257 4.79198 45.9659 4.642C45.6989 4.47008 45.3551 4.38594 44.9307 4.38594C44.4113 4.38594 43.9797 4.53226 43.6395 4.82856C43.2993 5.11754 43.1274 5.47968 43.1274 5.91864C43.1274 6.5222 43.5773 7.00871 44.4735 7.37817L45.7099 7.88297C46.7158 8.28901 47.4511 8.78649 47.9157 9.37177C48.3802 9.95704 48.6143 10.674 48.6143 11.5263C48.6143 12.6639 48.2339 13.6077 47.4767 14.3503C46.7122 15.1002 45.7611 15.4733 44.6271 15.4733C43.5517 15.4733 42.6628 15.155 41.9641 14.5185C41.2728 13.8821 40.8448 12.9859 40.6729 11.8299L42.5677 11.4129C42.6518 12.1409 42.8018 12.642 43.0176 12.92C43.4017 13.4541 43.965 13.7211 44.7003 13.7211C45.2819 13.7211 45.7684 13.5272 46.1525 13.1358C46.5366 12.7444 46.7305 12.2506 46.7305 11.6507C46.7305 11.4093 46.6975 11.1898 46.6317 10.9886C46.5659 10.7874 46.4598 10.6045 46.3208 10.4362C46.1781 10.268 45.9952 10.1107 45.7721 9.96436C45.5489 9.81804 45.2782 9.67538 44.971 9.54369L43.7748 9.04621C42.0775 8.32924 41.2325 7.28306 41.2325 5.90035C41.2325 4.97122 41.5873 4.19207 42.3007 3.56656C43.0103 2.93738 43.8955 2.61914 44.9563 2.61914C46.383 2.61914 47.4986 3.31416 48.2997 4.70419H48.2924Z" fill="#A6ADC0"/>
<path d="M55.9375 15.2468V2.86084H57.7994C58.6298 2.86084 59.2882 2.92668 59.782 3.05471C60.2795 3.18274 60.7002 3.39856 61.0404 3.70583C61.3879 4.02042 61.6622 4.41548 61.8671 4.8837C62.0756 5.35924 62.178 5.84209 62.178 6.3286C62.178 7.21749 61.8378 7.96738 61.1611 8.58192C61.8195 8.80505 62.339 9.20012 62.7157 9.75979C63.0998 10.3158 63.2937 10.9633 63.2937 11.7022C63.2937 12.6715 62.9498 13.4873 62.2658 14.1567C61.8525 14.57 61.3915 14.8554 60.8794 15.0163C60.3161 15.1699 59.6138 15.2504 58.7688 15.2504H55.9375V15.2468ZM57.8067 8.17954H58.392C59.087 8.17954 59.5955 8.02591 59.921 7.71864C60.2429 7.41137 60.4076 6.95778 60.4076 6.35787C60.4076 5.75796 60.2429 5.33363 59.9101 5.03002C59.5772 4.72641 59.098 4.57643 58.4652 4.57643H57.8067V8.17954ZM57.8067 13.4909H58.9627C59.8076 13.4909 60.4295 13.3263 60.8246 12.9934C61.2416 12.635 61.4501 12.1814 61.4501 11.629C61.4501 11.0767 61.2489 10.645 60.8502 10.2829C60.4588 9.9244 59.7601 9.74515 58.7578 9.74515H57.8104V13.4909H57.8067Z" fill="#A6ADC0"/>
<path d="M67.5226 2.86084V10.3195C67.5226 11.3839 67.6981 12.1631 68.0456 12.6532C68.5651 13.3629 69.293 13.7214 70.2368 13.7214C71.1805 13.7214 71.9158 13.3666 72.4352 12.6532C72.7827 12.1777 72.9583 11.3986 72.9583 10.3195V2.86084H74.8275V10.8352C74.8275 12.1411 74.4215 13.2166 73.6094 14.0616C72.6949 15.0017 71.5719 15.4735 70.2404 15.4735C68.9089 15.4735 67.7896 15.0017 66.8788 14.0616C66.0667 13.2166 65.6606 12.1411 65.6606 10.8352V2.86084H67.5299H67.5226Z" fill="#A6ADC0"/>
<path d="M84.7954 4.70419L83.2809 5.60405C82.9956 5.11388 82.7286 4.79198 82.4689 4.642C82.2018 4.47008 81.858 4.38594 81.4337 4.38594C80.9142 4.38594 80.4826 4.53226 80.1424 4.82856C79.8022 5.11754 79.6303 5.47968 79.6303 5.91864C79.6303 6.5222 80.0802 7.00871 80.9764 7.37817L82.2128 7.88297C83.2188 8.28901 83.954 8.78649 84.4186 9.37177C84.8831 9.95704 85.1173 10.674 85.1173 11.5263C85.1173 12.6639 84.7368 13.6077 83.9796 14.3503C83.2151 15.1002 82.264 15.4733 81.1301 15.4733C80.0546 15.4733 79.1657 15.155 78.467 14.5185C77.7757 13.8821 77.3477 12.9859 77.1758 11.8299L79.0706 11.4129C79.1548 12.1409 79.3047 12.642 79.5205 12.92C79.9046 13.4541 80.468 13.7211 81.2032 13.7211C81.7848 13.7211 82.2714 13.5272 82.6554 13.1358C83.0395 12.7444 83.2334 12.2506 83.2334 11.6507C83.2334 11.4093 83.2005 11.1898 83.1346 10.9886C83.0688 10.7874 82.9627 10.6045 82.8237 10.4362C82.681 10.268 82.4981 10.1107 82.275 9.96436C82.0519 9.81804 81.7812 9.67538 81.4739 9.54369L80.2778 9.04621C78.5804 8.32924 77.7355 7.28306 77.7355 5.90035C77.7355 4.97122 78.0903 4.19207 78.8036 3.56656C79.5132 2.93738 80.3985 2.61914 81.4593 2.61914C82.8859 2.61914 84.0016 3.31416 84.8027 4.70419H84.7954Z" fill="#A6ADC0"/>
<path d="M89.2398 2.86084V15.2468H87.3706V2.86084H89.2398Z" fill="#A6ADC0"/>
<path d="M92.2175 15.2465V2.01562L101.249 11.4678V2.86062H103.118V16.0001L94.0831 6.57347V15.2465H92.2139H92.2175Z" fill="#A6ADC0"/>
<path d="M112.925 4.61667H107.958V7.59426H112.779V9.35009H107.958V13.4909H112.925V15.2468H106.088V2.86084H112.925V4.61667Z" fill="#A6ADC0"/>
<path d="M122.381 4.70419L120.863 5.60405C120.578 5.11388 120.311 4.79198 120.051 4.642C119.784 4.47008 119.44 4.38594 119.016 4.38594C118.497 4.38594 118.069 4.53226 117.725 4.82856C117.381 5.11754 117.213 5.47968 117.213 5.91864C117.213 6.5222 117.662 7.00871 118.562 7.37817L119.799 7.88297C120.805 8.28901 121.54 8.78649 122.005 9.37177C122.469 9.95704 122.703 10.674 122.703 11.5263C122.703 12.6639 122.323 13.6077 121.562 14.3503C120.797 15.1002 119.85 15.4733 118.716 15.4733C117.641 15.4733 116.752 15.155 116.053 14.5185C115.362 13.8821 114.934 12.9859 114.762 11.8299L116.657 11.4129C116.741 12.1409 116.891 12.642 117.106 12.92C117.491 13.4541 118.054 13.7211 118.793 13.7211C119.374 13.7211 119.861 13.5272 120.245 13.1358C120.629 12.7444 120.823 12.2506 120.823 11.6507C120.823 11.4093 120.79 11.1898 120.724 10.9886C120.658 10.7874 120.552 10.6045 120.41 10.4362C120.267 10.268 120.084 10.1107 119.861 9.96436C119.638 9.81804 119.367 9.67538 119.06 9.54369L117.864 9.04621C116.166 8.32924 115.321 7.28306 115.321 5.90035C115.321 4.97122 115.676 4.19207 116.39 3.56656C117.099 2.93738 117.984 2.61914 119.045 2.61914C120.472 2.61914 121.588 3.31416 122.392 4.70419H122.381Z" fill="#A6ADC0"/>
<path d="M131.961 4.70419L130.443 5.60405C130.158 5.11388 129.891 4.79198 129.631 4.642C129.364 4.47008 129.02 4.38594 128.596 4.38594C128.077 4.38594 127.649 4.53226 127.305 4.82856C126.961 5.11754 126.793 5.47968 126.793 5.91864C126.793 6.5222 127.243 7.00871 128.142 7.37817L129.379 7.88297C130.385 8.28901 131.12 8.78649 131.585 9.37177C132.049 9.95704 132.283 10.674 132.283 11.5263C132.283 12.6639 131.903 13.6077 131.142 14.3503C130.377 15.1002 129.43 15.4733 128.296 15.4733C127.221 15.4733 126.332 15.155 125.633 14.5185C124.942 13.8821 124.514 12.9859 124.342 11.8299L126.237 11.4129C126.321 12.1409 126.471 12.642 126.687 12.92C127.071 13.4541 127.634 13.7211 128.373 13.7211C128.955 13.7211 129.441 13.5272 129.825 13.1358C130.209 12.7444 130.403 12.2506 130.403 11.6507C130.403 11.4093 130.37 11.1898 130.304 10.9886C130.238 10.7874 130.132 10.6045 129.99 10.4362C129.847 10.268 129.664 10.1107 129.441 9.96436C129.218 9.81804 128.947 9.67538 128.64 9.54369L127.444 9.04621C125.746 8.32924 124.901 7.28306 124.901 5.90035C124.901 4.97122 125.256 4.19207 125.97 3.56656C126.679 2.93738 127.564 2.61914 128.625 2.61914C130.052 2.61914 131.168 3.31416 131.972 4.70419H131.961Z" fill="#A6ADC0"/>
<path d="M11.0617 4.51029C10.2277 3.67627 9.28395 3.12391 8.23045 2.83859L10.7142 1.15958L9.08276 0.0182899L9.05716 0L6.46731 2.59717L6.44902 2.61546C4.68953 2.63009 3.17878 3.2556 1.91678 4.492C0.640146 5.74669 0 7.24646 0 8.99131C0 10.9776 0.702332 12.5834 2.10334 13.8125C3.37997 14.9209 4.81756 15.4733 6.4161 15.4733C8.2268 15.4733 9.77046 14.8514 11.0508 13.6004C12.3274 12.3567 12.9639 10.8459 12.9639 9.06081C12.9639 7.27572 12.3274 5.77229 11.0617 4.50663V4.51029ZM9.73754 12.3749C8.84134 13.2748 7.74394 13.7247 6.44536 13.7247C5.24554 13.7247 4.18839 13.2821 3.27389 12.4006C2.35208 11.5153 1.89118 10.3887 1.89118 9.01692C1.89118 7.64518 2.33745 6.61363 3.22268 5.72474C4.11157 4.82487 5.20165 4.37494 6.49291 4.37494C7.78418 4.37494 8.87426 4.82487 9.75217 5.72474C10.6374 6.62094 11.0764 7.72931 11.0764 9.04984C11.0764 10.3704 10.6301 11.4641 9.73388 12.3749H9.73754Z" fill="#A6ADC0"/>
</g>
<defs>
<clipPath id="clip0_1204_25617">
<rect width="133.333" height="16" fill="white"/>
</clipPath>
</defs>
</svg>
